<svg width="339" height="96" viewBox="0 0 339 96" fill="none" xmlns="http://www.w3.org/2000/svg">
  <g clip-path="url(#clip0_494_31761)">
    <path d="M48 0C31.9488 0 17.7504 7.88081 9.03357 19.9852L52.1376 47.1121C52.7904 47.5248 52.7904 48.4752 52.1376 48.8879L9.03357 76.0148C17.7504 88.1096 31.9488 96 48 96C74.5056 96 96 74.5077 96 48.0048C96 21.5018 74.5056 0 48 0Z" fill="url(#paint0_linear_494_31761)"/>
    <path d="M41.5776 47.4865L5.3952 25.8983C1.9584 32.512 0 40.028 0 47.9952C0 55.9624 1.9584 63.4785 5.3952 70.0922L41.5776 48.504C41.9616 48.2736 41.9616 47.7169 41.5776 47.4865Z" fill="#08316D"/>
    <path d="M84.9504 69.3627C82.3969 71.3881 80.8033 73.8934 79.1137 76.5524C77.3089 79.3937 75.4369 82.3406 72.2401 84.7787C70.1761 86.353 67.7281 87.6585 65.3569 88.9063C62.2753 90.5382 59.3664 92.0836 57.2832 94.1666C56.8801 94.5698 56.5441 94.9249 56.2177 95.2705C64.3201 93.869 72.1249 90.3846 78.7873 84.8075C80.2081 83.1469 81.3216 81.3903 82.416 79.6817C84.096 77.0515 85.6704 74.5558 88.1953 72.5592C88.8865 72.012 89.4816 71.5705 90.0288 71.1961C91.152 69.1611 92.1217 67.0589 92.9281 64.9087C92.2177 65.2447 91.6032 65.4943 91.0273 65.7343C89.2801 66.4542 87.9072 67.0301 84.9601 69.3627H84.9504Z" fill="#E9B069"/>
    <path d="M95.0784 51.0189C93.5328 52.5068 91.8816 53.793 90.1824 54.8393C87.1968 56.6823 85.5456 57.3639 84.096 57.959C82.3488 58.6789 80.976 59.2549 78.0288 61.5874C75.4752 63.6128 73.8816 66.1182 72.192 68.7771C70.3872 71.6184 68.5152 74.5653 65.3184 77.0035C63.2544 78.5777 60.8064 79.8832 58.4352 81.1311C55.3536 82.7629 52.4448 84.3084 50.3616 86.3914C47.712 89.0503 46.9824 90.3462 46.0608 91.9972C45.4944 93.0147 44.8704 94.1378 43.6992 95.7792C45.3504 95.9232 47.0112 95.9808 48.672 95.9616C48.7584 95.808 48.8448 95.664 48.9216 95.5201C49.8336 93.8882 50.544 92.6019 53.1744 89.9718C55.4496 87.6968 58.0992 86.4106 60.912 85.0475C63.9648 83.5692 67.1328 82.0334 69.9552 79.0961C70.176 78.8657 70.3872 78.6449 70.5792 78.4338C72.6528 76.3796 74.0928 74.1046 75.4944 71.9064C77.1744 69.2667 78.7488 66.7805 81.2736 64.7839C84.1824 62.4802 85.5456 61.9138 87.2736 61.1939C88.7328 60.5891 90.3936 59.898 93.3984 58.055C94.0032 57.6806 94.5984 57.2679 95.184 56.8455C95.5968 54.6665 95.856 52.4588 95.9616 50.2414C95.6832 50.491 95.3952 50.7501 95.088 51.0093L95.0784 51.0189Z" fill="#E9B069"/>
    <path d="M53.9808 77.2915C57.0336 75.8036 60.2016 74.2774 63.024 71.3401C63.2448 71.1097 63.456 70.8889 63.648 70.6777C65.7216 68.6235 67.1712 66.3486 68.5632 64.1504C70.2432 61.5107 71.8176 59.0245 74.3424 57.0279C77.2512 54.7241 78.6144 54.1578 80.3424 53.4379C81.8016 52.8331 83.4624 52.142 86.4672 50.299C88.1952 49.2335 89.856 47.9376 91.4016 46.4402C93.1968 44.9331 94.5408 43.4549 95.2896 42.1782C95.3856 42.015 95.4816 41.8614 95.5776 41.7078C95.2992 39.6056 94.8864 37.5131 94.3296 35.4589C93.5232 36.582 92.736 37.7722 91.9872 39.0585C91.248 40.316 89.9328 41.7558 88.1568 43.2533C86.6112 44.7411 84.96 46.0274 83.2608 47.0737C80.2752 48.9167 78.624 49.5982 77.1744 50.1934C75.4272 50.9133 74.0544 51.4893 71.1072 53.8218C68.5536 55.8472 66.96 58.3526 65.2704 61.0115C63.456 63.8528 61.5936 66.7997 58.3968 69.2379C56.3328 70.8121 53.8848 72.1176 51.5136 73.3751C48.432 75.0069 45.5232 76.5523 43.44 78.6353C40.7904 81.2943 40.0608 82.5997 39.1392 84.2508C38.3808 85.6234 37.5072 87.1785 35.3376 89.9334C34.4064 91.1141 33.3504 92.2468 32.1792 93.3219C33.8016 93.8882 35.4624 94.3586 37.1232 94.7425C37.488 94.3298 37.8432 93.917 38.1696 93.4947C40.3488 90.7205 41.2224 89.1559 41.9904 87.7736C42.9024 86.1418 43.6128 84.8555 46.2432 82.2254C48.5088 79.9504 51.168 78.6641 53.9712 77.3011L53.9808 77.2915Z" fill="#E9B069"/>
    <path d="M39.3313 74.4502C41.6065 72.1752 44.2561 70.8889 47.0593 69.5259C50.1121 68.038 53.2801 66.5118 56.1025 63.5745C56.3232 63.3441 56.5345 63.1233 56.7265 62.9121C58.8001 60.8579 60.2497 58.583 61.6417 56.3848C63.3217 53.745 64.8961 51.2589 67.4209 49.2623C70.3297 46.9585 71.6929 46.3922 73.4209 45.6723C74.8801 45.0675 76.5409 44.3764 79.5457 42.5334C81.2641 41.4775 82.9249 40.172 84.48 38.6746C86.2752 37.1675 87.6193 35.6988 88.3681 34.4126C89.5393 32.416 90.7681 30.6306 92.0929 29.0275C91.4497 27.5205 90.7201 26.0422 89.9137 24.5928C88.1569 26.5318 86.5632 28.7395 85.0657 31.2833C84.3361 32.5408 83.0113 33.9806 81.2353 35.4781C79.6897 36.9659 78.048 38.2522 76.3392 39.2985C73.3536 41.1415 71.7025 41.823 70.2529 42.4182C68.5057 43.1381 67.1329 43.7141 64.1857 46.0466C61.6321 48.072 60.0385 50.5774 58.3489 53.2363C56.5441 56.0776 54.6721 59.0245 51.4753 61.4627C49.4113 63.0369 46.9633 64.3424 44.5921 65.5903C41.5105 67.2221 38.6017 68.7675 36.5185 70.8505C33.8689 73.5095 33.1393 74.8149 32.2177 76.4564C31.4497 77.829 30.5857 79.3841 28.4161 82.139C27.1777 83.7132 25.7185 85.2011 24.0481 86.5738C23.3473 87.2457 22.6561 87.812 21.9937 88.3112C23.3665 89.1943 24.7681 90.0006 26.2081 90.7301C26.4193 90.5382 26.6305 90.3654 26.8417 90.1638C28.5121 88.7815 30.0001 87.2841 31.2481 85.6906C33.4273 82.9165 34.3009 81.3519 35.0689 79.9696C35.9809 78.3378 36.6913 77.0515 39.3217 74.4214L39.3313 74.4502Z" fill="#E9B069"/>
    <path d="M24.3361 77.9634C26.5153 75.1893 27.3889 73.6246 28.1569 72.2424C29.0689 70.6105 29.7793 69.3243 32.4097 66.6941C34.6753 64.4192 37.3345 63.1329 40.1377 61.7698C43.1905 60.2916 46.3585 58.7557 49.1809 55.8184C49.4017 55.588 49.6129 55.3673 49.8049 55.1561C51.8785 53.1019 53.3281 50.8269 54.7201 48.6191C56.4001 45.989 57.9745 43.4932 60.4993 41.4966C63.4081 39.1929 64.7713 38.6265 66.4993 37.9066C67.9585 37.3019 69.6193 36.6107 72.6241 34.7677C74.3425 33.7118 76.0033 32.4064 77.5585 30.9089C79.3537 29.4019 80.6976 27.9332 81.4464 26.6469C83.0497 23.9208 84.7681 21.569 86.6689 19.5436C85.7665 18.3246 84.8065 17.1343 83.7697 15.992C81.7057 18.1134 79.8529 20.5995 78.1345 23.5272C77.4049 24.7751 76.0801 26.2246 74.3041 27.722C72.7585 29.2099 71.1073 30.5057 69.4081 31.552C66.4225 33.3951 64.7713 34.0766 63.3217 34.6717C61.5745 35.3917 60.2017 35.9676 57.2545 38.3002C54.7009 40.3256 53.1073 42.8309 51.4177 45.4898C51.2449 45.7682 51.0625 46.0466 50.8897 46.325L52.1377 47.1121C52.7905 47.5248 52.7905 48.4751 52.1377 48.8879L44.8225 53.4858C44.7265 53.5626 44.6401 53.6394 44.5441 53.7162C42.9217 54.9545 41.0689 56.02 39.2065 57.0279L29.7217 62.9985C29.7217 62.9985 29.6353 63.0753 29.5969 63.1137C26.9473 65.7726 26.2177 67.0781 25.2961 68.7291C24.5281 70.1018 23.6641 71.6568 21.4945 74.4117C20.2561 75.986 18.7969 77.4738 17.1265 78.8465C15.9073 79.9984 14.7457 80.9103 13.6801 81.5534C13.8049 81.6782 13.9201 81.8126 14.0545 81.947C15.0433 82.9357 16.0609 83.8572 17.1169 84.7403C18.0097 84.1356 18.9505 83.3772 19.9297 82.4461C21.6001 81.0639 23.0881 79.5664 24.3361 77.973V77.9634Z" fill="#E9B069"/>
    <path d="M16.464 71.3305L9.04321 75.9961C9.32161 76.3801 9.60001 76.7737 9.88801 77.1577C10.8672 76.5241 11.9136 75.6985 13.008 74.6617C14.2752 73.6153 15.4368 72.5017 16.464 71.3209V71.3305Z" fill="#E9B069"/>
    <path d="M67.3824 19.966C65.8368 21.4539 64.1856 22.7401 62.4864 23.7864C59.5008 25.6294 57.8496 26.311 56.4 26.9061C54.6528 27.626 53.28 28.202 50.3328 30.5345C47.7792 32.5599 46.1856 35.0653 44.496 37.7242C43.8144 38.7993 43.1232 39.884 42.3552 40.9495L46.1664 43.3493C46.7328 42.5141 47.2704 41.679 47.7888 40.8535C49.4688 38.2234 51.0432 35.7276 53.568 33.731C56.4768 31.4273 57.84 30.8609 59.568 30.141C61.0272 29.5362 62.688 28.8547 65.6928 27.0021C67.4208 25.9366 69.0816 24.6407 70.6272 23.1433C72.4224 21.6362 73.7664 20.1676 74.5152 18.8813C76.08 16.2032 77.7696 13.8994 79.6224 11.9028C78.4704 10.8949 77.28 9.93501 76.0608 9.0519C74.304 10.9909 72.7008 13.1987 71.2032 15.752C70.4736 17.0095 69.1488 18.4494 67.3728 19.9468L67.3824 19.966Z" fill="#E9B069"/>
    <path d="M55.5647 16.0208C52.5791 17.8638 50.9279 18.5454 49.4783 19.1405C47.7311 19.8604 46.3583 20.4364 43.4111 22.7689C40.8575 24.7943 39.2639 27.2997 37.5743 29.9586C36.4031 31.8016 35.1935 33.6926 33.6191 35.4589L37.5071 37.9066C38.8031 36.342 39.8495 34.7005 40.8671 33.0975C42.5471 30.4578 44.1215 27.9716 46.6463 25.975C49.5551 23.6712 50.9183 23.1049 52.6463 22.385C54.1055 21.7802 55.7663 21.0891 58.7711 19.2461C60.4895 18.1902 62.1503 16.8847 63.7055 15.3873C65.5007 13.8802 66.8447 12.402 67.5935 11.1253C68.7071 9.21509 69.8879 7.50646 71.1455 5.95142C69.7823 5.20269 68.3999 4.52116 66.9887 3.91642C66.0479 5.1739 65.1551 6.52736 64.2911 7.99601C63.5615 9.24389 62.2367 10.6933 60.4607 12.1908C58.9151 13.6786 57.2639 14.9649 55.5647 16.0112V16.0208Z" fill="#E9B069"/>
    <path d="M42.5568 11.3846C40.8096 12.1045 39.4368 12.6804 36.4896 15.013C33.936 17.0384 32.3424 19.5437 30.6528 22.2027C29.0016 24.7944 27.2832 27.4725 24.576 29.7763L28.6176 32.3201C28.7616 32.1665 28.9056 32.0225 29.04 31.8785C31.1136 29.8243 32.5632 27.5493 33.9552 25.3512C35.6352 22.7114 37.2096 20.2253 39.7344 18.2287C42.6432 15.9249 44.0064 15.3586 45.7344 14.6386C47.1936 14.0339 48.8544 13.3428 51.8592 11.4997C53.5776 10.4438 55.248 9.13838 56.7936 7.64093C58.5888 6.13388 59.9328 4.65563 60.6816 3.37895C60.9696 2.8894 61.2576 2.41905 61.5456 1.9583C60.0384 1.51674 58.512 1.15198 56.976 0.864006C56.208 1.9679 55.0368 3.19657 53.5392 4.45405C51.9936 5.9419 50.3424 7.22817 48.6432 8.27446C45.6576 10.1175 44.0064 10.799 42.5568 11.3942V11.3846Z" fill="#E9B069"/>
    <path d="M16.8576 22.6537C16.32 23.0665 15.744 23.4601 15.1584 23.8344L19.488 26.5606C20.1696 26.023 20.832 25.4279 21.4848 24.7559C21.7056 24.5256 21.9168 24.3048 22.1088 24.0936C24.1824 22.0394 25.632 19.7644 27.024 17.5567C28.704 14.9265 30.2784 12.4308 32.8032 10.4342C35.712 8.13039 37.0752 7.56405 38.8032 6.84412C40.2624 6.23938 41.9232 5.54825 44.928 3.70524C46.5792 2.68774 48.1728 1.44946 49.6704 0.0288033C47.0592 -0.0575881 44.448 0.0576004 41.856 0.393567C41.808 0.422364 41.7696 0.451161 41.7216 0.479958C38.736 2.32297 37.0848 3.00451 35.6352 3.59965C33.888 4.31957 32.5152 4.89552 29.568 7.22808C27.0144 9.25348 25.4208 11.7588 23.7312 14.4178C21.9264 17.2591 20.0544 20.206 16.8576 22.6441V22.6537Z" fill="#E9B069"/>
    <path d="M14.5632 16.9999C14.784 16.7695 14.9856 16.5488 15.1872 16.3376C17.2608 14.2834 18.7104 12.0084 20.1024 9.80064C20.4384 9.27269 20.7744 8.75435 21.1104 8.236C18.624 9.91583 16.2624 11.8548 14.0544 14.053C12.192 15.9152 10.5216 17.9022 9.02405 19.9756L9.99365 20.5804C11.568 19.6301 13.1136 18.4974 14.5632 16.9903V16.9999Z" fill="#E9B069"/>
    <path d="M41.5776 48.5039C41.7696 48.3887 41.8656 48.1968 41.8656 47.9952H0C0 52.5355 0.6528 56.9223 1.8432 61.0883C2.1888 62.3073 2.5728 63.5072 3.0048 64.6879C3.1776 65.1391 3.36 65.5902 3.5424 66.0318C4.1088 67.414 4.7136 68.7771 5.3952 70.0922L41.5776 48.5039Z" fill="#2F5181"/>
    <path d="M123.35 23.376C122.294 23.376 121.469 24.2016 121.469 25.2576V49.9008C121.469 50.9568 122.294 51.7824 123.35 51.7824C124.406 51.7824 125.232 50.9568 125.232 49.9008V25.2576C125.232 24.2016 124.406 23.376 123.35 23.376Z" fill="#08316D"/>
    <path d="M157.44 23.376C156.384 23.376 155.558 24.2016 155.558 25.2576V44.9952L136.541 24.1536C136.09 23.6544 135.725 23.376 135.082 23.376C134.131 23.376 133.392 24.2016 133.392 25.2576V49.9008C133.392 50.9568 134.131 51.7824 135.082 51.7824C135.11 51.7824 135.139 51.7824 135.168 51.7728C135.197 51.7728 135.235 51.7824 135.264 51.7824C136.32 51.7824 137.146 50.9568 137.146 49.9008V30.1632L156.163 51.0048C156.614 51.504 156.979 51.7824 157.622 51.7824C158.573 51.7824 159.312 50.9568 159.312 49.9008V25.2576C159.312 24.2016 158.486 23.376 157.43 23.376H157.44Z" fill="#08316D"/>
    <path d="M183.706 35.5008H173.472C172.416 35.5008 171.59 36.3264 171.59 37.3824C171.59 38.4384 172.416 39.264 173.472 39.264H183.706C184.762 39.264 185.587 38.4384 185.587 37.3824C185.587 36.3264 184.762 35.5008 183.706 35.5008Z" fill="#08316D"/>
    <path d="M218.352 23.3952L199.757 23.3568C199.248 23.3472 198.797 23.5296 198.432 23.8944C198.058 24.2496 197.866 24.7008 197.866 25.2192V49.9008C197.866 50.4192 198.058 50.8704 198.403 51.1968C198.758 51.5712 199.21 51.7632 199.728 51.7632C200.246 51.7632 200.698 51.5712 201.024 51.2256C201.398 50.88 201.59 50.4192 201.59 49.9008V39.4176H214.886C215.405 39.4176 215.856 39.2256 216.182 38.88C216.557 38.5344 216.749 38.0736 216.749 37.5552C216.749 37.0368 216.557 36.5856 216.211 36.2592C215.856 35.8848 215.405 35.6928 214.886 35.6928H201.59V27.072L218.362 27.1104C218.87 27.1104 219.322 26.928 219.667 26.5728C220.032 26.208 220.224 25.7472 220.224 25.248C220.224 24.7488 220.032 24.2976 219.686 23.952C219.331 23.5776 218.88 23.3856 218.362 23.3856L218.352 23.3952Z" fill="#08316D"/>
    <path d="M245.779 48.0576H230.602V25.3152C230.602 24.8064 230.419 24.3552 230.064 24.0096C229.334 23.28 228.144 23.2992 227.434 24.0096C227.088 24.3552 226.896 24.816 226.896 25.3152V49.9008C226.896 50.4 227.078 50.8512 227.443 51.2448C227.798 51.5808 228.259 51.7632 228.758 51.7632H245.77C246.278 51.7632 246.73 51.5808 247.075 51.2256C247.44 50.8608 247.632 50.4096 247.632 49.9008C247.632 49.392 247.44 48.9504 247.075 48.5952C246.73 48.2496 246.269 48.0576 245.77 48.0576H245.779Z" fill="#08316D"/>
    <path d="M274.8 27.12C275.309 27.12 275.76 26.9376 276.106 26.5824C276.47 26.2176 276.662 25.7568 276.662 25.2576C276.662 24.7584 276.47 24.3072 276.125 23.9616C275.77 23.5872 275.318 23.3952 274.8 23.3952L256.195 23.3568C255.696 23.3472 255.216 23.5296 254.87 23.8944C254.496 24.2496 254.304 24.7008 254.304 25.2192V49.9008C254.304 50.4192 254.496 50.8704 254.842 51.1968C255.197 51.5712 255.648 51.7632 256.166 51.7632H274.79C275.309 51.7632 275.76 51.5712 276.086 51.2256C276.461 50.88 276.653 50.4192 276.653 49.9008C276.653 49.3824 276.461 48.9312 276.115 48.6048C275.76 48.2304 275.309 48.0384 274.79 48.0384H258.019V39.4176H271.315C271.834 39.4176 272.285 39.2256 272.611 38.88C272.986 38.5344 273.178 38.0736 273.178 37.5552C273.178 37.0368 272.986 36.5856 272.64 36.2592C272.285 35.8848 271.834 35.6928 271.315 35.6928H258.019V27.072L274.79 27.1104L274.8 27.12Z" fill="#08316D"/>
    <path d="M303.84 27.12C304.349 27.12 304.8 26.9376 305.146 26.5824C305.51 26.2176 305.702 25.7568 305.702 25.2576C305.702 24.7584 305.51 24.3072 305.165 23.9616C304.81 23.5872 304.358 23.3952 303.84 23.3952L285.235 23.3568C284.736 23.3472 284.256 23.5296 283.91 23.8944C283.536 24.2496 283.344 24.7008 283.344 25.2192V49.9008C283.344 50.4192 283.536 50.8704 283.882 51.1968C284.237 51.5712 284.688 51.7632 285.206 51.7632H303.83C304.349 51.7632 304.8 51.5712 305.126 51.2256C305.501 50.88 305.693 50.4192 305.693 49.9008C305.693 49.3824 305.501 48.9312 305.155 48.6048C304.8 48.2304 304.349 48.0384 303.83 48.0384H287.059V39.4176H300.355C300.874 39.4176 301.325 39.2256 301.651 38.88C302.026 38.5344 302.218 38.0736 302.218 37.5552C302.218 37.0368 302.026 36.5856 301.68 36.2592C301.325 35.8848 300.874 35.6928 300.355 35.6928H287.059V27.072L303.83 27.1104L303.84 27.12Z" fill="#08316D"/>
    <path d="M314.246 23.4432C313.19 23.4432 312.365 24.2496 312.365 25.2768C312.365 26.304 313.19 27.1104 314.246 27.1104H323.434V49.8912C323.434 50.9472 324.259 51.7728 325.315 51.7728C326.371 51.7728 327.197 50.9472 327.197 49.8912V27.1104H336.384C337.44 27.1104 338.266 26.304 338.266 25.2768C338.266 24.2496 337.44 23.4432 336.384 23.4432H314.246Z" fill="#08316D"/>
    <path d="M122.083 63.8976H121.296V70.2432H122.083V63.8976Z" fill="#08316D"/>
    <path d="M128.678 68.8704L125.011 63.9168L124.992 63.8976H124.234V70.2432H124.982V65.136L128.736 70.224L128.755 70.2432H129.427V63.8976H128.678V68.8704Z" fill="#08316D"/>
    <path d="M131.05 64.608H133.306V70.2432H134.093V64.608H136.349V63.8976H131.05V64.608Z" fill="#08316D"/>
    <path d="M138.749 67.392H141.226V66.6912H138.749V64.5984H142.531V63.8976H137.971V70.2432H142.57V69.5424H138.749V67.392Z" fill="#08316D"/>
    <path d="M145.123 63.8976H144.346V70.2432H148.848V69.5328H145.123V63.8976Z" fill="#08316D"/>
    <path d="M151.392 63.8976H150.605V70.2432H155.117V69.5328H151.392V63.8976Z" fill="#08316D"/>
    <path d="M157.661 63.8976H156.874V70.2432H157.661V63.8976Z" fill="#08316D"/>
    <path d="M162.845 67.584H165.082C165.053 67.8624 164.976 68.1216 164.861 68.3616C164.736 68.6208 164.563 68.8416 164.371 69.024C164.17 69.2064 163.93 69.3504 163.661 69.456C163.392 69.5616 163.094 69.6192 162.787 69.6192C162.442 69.6192 162.106 69.552 161.808 69.4176C161.501 69.2832 161.242 69.1104 161.021 68.88C160.8 68.6592 160.627 68.3904 160.502 68.0736C160.378 67.7664 160.31 67.4304 160.31 67.0752C160.31 66.72 160.378 66.384 160.502 66.0672C160.627 65.76 160.81 65.4816 161.021 65.2608C161.242 65.04 161.501 64.8576 161.808 64.7232C162.115 64.5888 162.442 64.5216 162.787 64.5216C163.162 64.5216 163.526 64.5984 163.872 64.7424C164.218 64.8864 164.515 65.0976 164.746 65.3664L164.784 65.4048L165.322 64.8576L165.293 64.8192C164.986 64.4928 164.611 64.2336 164.179 64.0512C163.747 63.8688 163.277 63.7728 162.797 63.7728C162.346 63.7728 161.914 63.8592 161.51 64.032C161.107 64.2048 160.762 64.4352 160.464 64.7328C160.176 65.0208 159.936 65.376 159.773 65.7696C159.6 66.1632 159.523 66.5952 159.523 67.0464C159.523 67.4976 159.61 67.9296 159.782 68.3232C159.955 68.7168 160.186 69.072 160.483 69.36C160.771 69.648 161.126 69.888 161.53 70.0608C161.933 70.2336 162.365 70.32 162.816 70.32C163.267 70.32 163.661 70.2336 164.035 70.08C164.41 69.9168 164.736 69.696 165.014 69.4176C165.293 69.1392 165.514 68.8032 165.667 68.4288C165.821 68.0448 165.907 67.632 165.907 67.1904V66.864H162.874V67.5648L162.845 67.584Z" fill="#08316D"/>
    <path d="M168.509 67.392H170.976V66.6912H168.509V64.5984H172.291V63.8976H167.722V70.2432H172.33V69.5424H168.509V67.392Z" fill="#08316D"/>
    <path d="M178.541 68.8704L174.874 63.9168L174.854 63.8976H174.096V70.2432H174.845V65.136L178.598 70.224L178.618 70.2432H179.29V63.8976H178.541V68.8704Z" fill="#08316D"/>
    <path d="M180.912 64.608H183.168V70.2432H183.955V64.608H186.211V63.8976H180.912V64.608Z" fill="#08316D"/>
    <path d="M199.795 63.8976H199.008V70.2432H199.795V63.8976Z" fill="#08316D"/>
    <path d="M206.39 68.8704L202.714 63.9168L202.704 63.8976H201.946V70.2432H202.694V65.136L206.448 70.224L206.458 70.2432H207.139V63.8976H206.39V68.8704Z" fill="#08316D"/>
    <path d="M208.752 64.608H211.018V70.2432H211.795V64.608H214.061V63.8976H208.752V64.608Z" fill="#08316D"/>
    <path d="M216.461 67.392H218.928V66.6912H216.461V64.5984H220.243V63.8976H215.674V70.2432H220.282V69.5424H216.461V67.392Z" fill="#08316D"/>
    <path d="M224.698 67.584H226.934C226.906 67.8624 226.829 68.1216 226.714 68.3616C226.589 68.6208 226.416 68.8416 226.224 69.024C226.022 69.2064 225.782 69.3504 225.514 69.456C225.245 69.5616 224.947 69.6192 224.64 69.6192C224.294 69.6192 223.958 69.552 223.661 69.4176C223.354 69.2832 223.094 69.1104 222.874 68.88C222.653 68.6592 222.48 68.3904 222.355 68.0736C222.23 67.7664 222.163 67.4304 222.163 67.0752C222.163 66.72 222.23 66.384 222.355 66.0672C222.48 65.76 222.662 65.4816 222.874 65.2608C223.094 65.04 223.354 64.8576 223.661 64.7232C223.968 64.5888 224.294 64.5216 224.64 64.5216C225.014 64.5216 225.379 64.5984 225.725 64.7424C226.07 64.8864 226.368 65.0976 226.598 65.3664L226.637 65.4048L227.174 64.8576L227.146 64.8192C226.838 64.4928 226.464 64.2336 226.032 64.0512C225.6 63.8688 225.13 63.7728 224.65 63.7728C224.198 63.7728 223.766 63.8592 223.363 64.032C222.96 64.2048 222.614 64.4352 222.317 64.7328C222.029 65.0208 221.789 65.376 221.626 65.7696C221.453 66.1632 221.376 66.5952 221.376 67.0464C221.376 67.4976 221.462 67.9296 221.635 68.3232C221.808 68.7168 222.038 69.072 222.336 69.36C222.624 69.648 222.979 69.888 223.382 70.0608C223.786 70.2336 224.218 70.32 224.669 70.32C225.12 70.32 225.514 70.2336 225.888 70.08C226.262 69.9168 226.589 69.696 226.867 69.4176C227.146 69.1392 227.366 68.8032 227.52 68.4288C227.674 68.0448 227.76 67.632 227.76 67.1904V66.864H224.726V67.5648L224.698 67.584Z" fill="#08316D"/>
    <path d="M234.01 66.8352C234.259 66.528 234.384 66.1632 234.384 65.7408C234.384 65.1936 234.192 64.7424 233.808 64.4064C233.424 64.0704 232.915 63.8976 232.301 63.8976H229.574V70.2432H230.362V67.5552H232.282L233.606 70.2144V70.2432H234.49L233.078 67.4496C233.462 67.3344 233.779 67.1232 234.019 66.8352H234.01ZM230.352 64.608H232.253C232.656 64.608 232.982 64.7136 233.232 64.9152C233.472 65.1168 233.597 65.3952 233.597 65.7312C233.597 66.0672 233.482 66.3456 233.232 66.5568C232.982 66.768 232.656 66.8736 232.253 66.8736H230.352V64.5984V64.608Z" fill="#08316D"/>
    <path d="M239.146 63.8976H238.253L235.642 70.176L235.613 70.2432H236.429L237.226 68.2752H240.106L240.883 70.2048V70.2336H241.747L239.155 63.9168V63.888L239.146 63.8976ZM239.827 67.5936H237.504L238.675 64.7136L239.827 67.5936Z" fill="#08316D"/>
    <path d="M241.546 64.608H243.811V70.2432H244.589V64.608H246.845V63.8976H241.546V64.608Z" fill="#08316D"/>
    <path d="M249.254 67.392H251.722V66.6912H249.254V64.5984H253.037V63.8976H248.467V70.2432H253.075V69.5424H249.254V67.392Z" fill="#08316D"/>
    <path d="M259.344 64.8C259.046 64.5216 258.691 64.3008 258.288 64.1376C257.875 63.9744 257.434 63.8976 256.954 63.8976H254.842V70.2432H256.954C257.434 70.2432 257.885 70.1664 258.288 70.0032C258.701 69.84 259.056 69.6192 259.344 69.3408C259.632 69.0624 259.872 68.7264 260.035 68.3424C260.198 67.9584 260.285 67.5264 260.285 67.0656C260.285 66.6048 260.198 66.1824 260.035 65.7888C259.872 65.4048 259.632 65.0592 259.344 64.7904V64.8ZM256.992 69.5232H255.629V64.6176H256.992C257.338 64.6176 257.674 64.6848 257.981 64.8096C258.288 64.9344 258.557 65.1072 258.778 65.328C258.998 65.5488 259.171 65.808 259.306 66.1056C259.43 66.4032 259.498 66.7296 259.498 67.0752C259.498 67.4208 259.43 67.7472 259.306 68.0448C259.181 68.3424 258.998 68.6112 258.778 68.8224C258.557 69.0432 258.288 69.216 257.981 69.3408C257.674 69.4656 257.338 69.5328 256.992 69.5328V69.5232Z" fill="#08316D"/>
    <path d="M274.109 63.8976H273.322V70.2432H274.109V63.8976Z" fill="#08316D"/>
    <path d="M280.704 68.8704L277.037 63.9168L277.018 63.8976H276.259V70.2432H277.008V65.136L280.762 70.224L280.771 70.2432H281.453V63.8976H280.704V68.8704Z" fill="#08316D"/>
    <path d="M283.075 64.608H285.331V70.2432H286.118V64.608H288.374V63.8976H283.075V64.608Z" fill="#08316D"/>
    <path d="M290.774 67.392H293.251V66.6912H290.774V64.5984H294.557V63.8976H289.987V70.2432H294.595V69.5424H290.774V67.392Z" fill="#08316D"/>
    <path d="M300.806 66.8352C301.056 66.528 301.181 66.1632 301.181 65.7408C301.181 65.1936 300.989 64.7424 300.605 64.4064C300.221 64.0704 299.712 63.8976 299.098 63.8976H296.371V70.2432H297.158V67.5552H299.078L300.403 70.2144V70.2432H301.286L299.875 67.4496C300.259 67.3344 300.576 67.1232 300.816 66.8352H300.806ZM297.149 64.608H299.05C299.453 64.608 299.779 64.7136 300.029 64.9152C300.269 65.1168 300.394 65.3952 300.394 65.7312C300.394 66.0672 300.278 66.3456 300.029 66.5568C299.779 66.768 299.453 66.8736 299.05 66.8736H297.149V64.5984V64.608Z" fill="#08316D"/>
    <path d="M305.942 63.8976H305.05L302.438 70.176L302.41 70.2432H303.226L304.022 68.2752H306.902L307.68 70.2048V70.2336H308.544L305.952 63.9168V63.888L305.942 63.8976ZM306.624 67.5936H304.301L305.472 64.7136L306.624 67.5936Z" fill="#08316D"/>
    <path d="M310.915 65.2608C311.136 65.04 311.405 64.8576 311.712 64.7232C312.019 64.5888 312.355 64.5216 312.701 64.5216C313.075 64.5216 313.44 64.5984 313.795 64.752C314.15 64.9056 314.448 65.1168 314.688 65.3856L314.726 65.424L315.245 64.8672L315.216 64.8384C314.909 64.512 314.534 64.2528 314.093 64.0704C313.661 63.888 313.19 63.792 312.701 63.792C312.24 63.792 311.808 63.8784 311.414 64.0416C311.011 64.2048 310.666 64.4448 310.368 64.7328C310.07 65.0208 309.84 65.376 309.667 65.7696C309.494 66.1728 309.418 66.6048 309.418 67.056C309.418 67.5072 309.504 67.9392 309.667 68.3328C309.83 68.7264 310.07 69.0816 310.368 69.3792C310.666 69.6672 311.011 69.9072 311.414 70.0704C311.818 70.2432 312.25 70.32 312.701 70.32C313.152 70.32 313.632 70.224 314.064 70.0416C314.496 69.8592 314.87 69.6 315.187 69.2736L315.216 69.2352L314.698 68.6976L314.659 68.736C314.429 68.9952 314.131 69.2064 313.795 69.3504C313.45 69.4944 313.085 69.5712 312.71 69.5712C312.355 69.5712 312.019 69.504 311.712 69.3696C311.405 69.2352 311.136 69.0624 310.915 68.832C310.694 68.6112 310.512 68.3424 310.387 68.0256C310.262 67.7184 310.195 67.3824 310.195 67.0272C310.195 66.672 310.262 66.336 310.387 66.0192C310.512 65.712 310.694 65.4336 310.915 65.2128V65.2608Z" fill="#08316D"/>
    <path d="M316.579 64.608H318.835V70.2432H319.622V64.608H321.878V63.8976H316.579V64.608Z" fill="#08316D"/>
    <path d="M324.288 63.8976H323.501V70.2432H324.288V63.8976Z" fill="#08316D"/>
    <path d="M328.829 69.4272L326.621 63.9264L326.602 63.8976H325.757L328.349 70.2144L328.358 70.2432H329.251L331.862 63.9648L331.891 63.8976H331.094L328.829 69.4272Z" fill="#08316D"/>
    <path d="M334.157 69.5424V67.392H336.624V66.6912H334.157V64.5984H337.939V63.8976H333.37V70.2432H337.978V69.5424H334.157Z" fill="#08316D"/>
  </g>
  <defs>
    <linearGradient id="paint0_linear_494_31761" x1="6.64317" y1="24.1224" x2="89.5734" y2="72" gradientUnits="userSpaceOnUse">
      <stop stop-color="#F5BF7B"/>
      <stop offset="1" stop-color="#C78336"/>
    </linearGradient>
    <clipPath id="clip0_494_31761">
      <rect width="338.256" height="96" fill="white"/>
    </clipPath>
  </defs>
</svg>
