<?xml version="1.0" encoding="UTF-8"?> <!-- Generator: Adobe Illustrator 25.3.1, SVG Export Plug-In . SVG Version: 6.00 Build 0) --> <svg xmlns="http://www.w3.org/2000/svg" xmlns:xlink="http://www.w3.org/1999/xlink" version="1.1" id="Livello_1" x="0px" y="0px" viewBox="0 0 500 145" style="enable-background:new 0 0 500 145;" xml:space="preserve"> <style type="text/css"> .st0{fill:#08316D;} .st1{fill:url(#SVGID_1_);} .st2{clip-path:url(#SVGID_3_);} .st3{fill:#80B4B4;} .st4{fill:#2F5180;} </style> <g> <g> <rect x="171.2" y="98.5" class="st0" width="1.2" height="9.6"></rect> <polygon class="st0" points="182.5,105.9 176.9,98.5 176.9,98.5 175.7,98.5 175.7,107.9 176.7,107.9 176.7,100.3 182.5,107.9 182.5,107.9 183.5,107.9 183.5,98.5 182.5,98.5 "></polygon> <polygon class="st0" points="186,99.5 189.4,99.5 189.4,107.9 190.6,107.9 190.6,99.5 194.1,99.5 194.1,98.5 186,98.5 "></polygon> <polygon class="st0" points="197.6,103.7 201.3,103.7 201.3,102.7 197.6,102.7 197.6,99.5 203.4,99.5 203.4,98.5 196.5,98.5 196.5,107.9 203.4,107.9 203.4,106.9 197.6,106.9 "></polygon> <polygon class="st0" points="207.3,98.5 206.1,98.5 206.1,107.9 213,107.9 213,106.9 207.3,106.9 "></polygon> <polygon class="st0" points="216.9,98.5 215.7,98.5 215.7,107.9 222.4,107.9 222.4,106.9 216.9,106.9 "></polygon> <rect x="225.1" y="98.5" class="st0" width="1.2" height="9.6"></rect> <path class="st0" d="M234.2,104h3.4c0,0.3-0.2,0.8-0.3,1.2c-0.2,0.3-0.5,0.7-0.7,1c-0.3,0.3-0.7,0.5-1,0.7 c-0.3,0.2-0.8,0.2-1.3,0.2s-1-0.2-1.5-0.3c-0.5-0.2-0.8-0.5-1.2-0.8s-0.7-0.7-0.8-1.2c-0.2-0.5-0.3-1-0.3-1.5s0.2-1,0.3-1.5 c0.2-0.5,0.5-0.8,0.8-1.2s0.7-0.7,1.2-0.8s1-0.3,1.5-0.3c0.5,0,1.2,0.2,1.7,0.3c0.5,0.2,1,0.5,1.3,1l0,0l0.8-0.8l0,0 c-0.5-0.5-1-0.8-1.7-1.2c-0.7-0.3-1.3-0.3-2-0.3c-0.7,0-1.3,0.2-2,0.3c-0.7,0.3-1.2,0.7-1.5,1c-0.5,0.5-0.8,1-1,1.5 c-0.3,0.7-0.3,1.2-0.3,1.9s0.2,1.3,0.3,1.9c0.3,0.7,0.7,1.2,1,1.5c0.5,0.5,1,0.8,1.5,1c0.7,0.3,1.2,0.3,2,0.3 c0.7,0,1.3-0.2,1.9-0.3c0.5-0.2,1-0.5,1.5-1c0.3-0.3,0.7-0.8,1-1.5c0.2-0.5,0.3-1.2,0.3-1.9v-0.2h-4.6v1.2H234.2z"></path> <polygon class="st0" points="242.7,103.7 246.5,103.7 246.5,102.7 242.7,102.7 242.7,99.5 248.4,99.5 248.4,98.5 241.5,98.5 241.5,107.9 248.6,107.9 248.6,106.9 242.7,106.9 "></polygon> <polygon class="st0" points="258,105.9 252.4,98.5 252.3,98.5 251.3,98.5 251.3,107.9 252.3,107.9 252.3,100.3 258,107.9 258,107.9 259,107.9 259,98.5 258,98.5 "></polygon> <polygon class="st0" points="261.6,99.5 264.9,99.5 264.9,107.9 266.1,107.9 266.1,99.5 269.5,99.5 269.5,98.5 261.6,98.5 "></polygon> <rect x="288.9" y="98.5" class="st0" width="1.2" height="9.6"></rect> <polygon class="st0" points="300.2,105.9 294.6,98.5 294.6,98.5 293.4,98.5 293.4,107.9 294.6,107.9 294.6,100.3 300.2,107.9 300.2,107.9 301.2,107.9 301.2,98.5 300.2,98.5 "></polygon> <polygon class="st0" points="303.7,99.5 307.1,99.5 307.1,107.9 308.3,107.9 308.3,99.5 311.8,99.5 311.8,98.5 303.7,98.5 "></polygon> <polygon class="st0" points="315.3,103.7 319.1,103.7 319.1,102.7 315.3,102.7 315.3,99.5 321.1,99.5 321.1,98.5 314.2,98.5 314.2,107.9 321.2,107.9 321.2,106.9 315.3,106.9 "></polygon> <path class="st0" d="M327.8,104h3.4c0,0.3-0.2,0.8-0.3,1.2c-0.2,0.3-0.5,0.7-0.7,1c-0.3,0.3-0.7,0.5-1,0.7 c-0.3,0.2-0.8,0.2-1.3,0.2c-0.5,0-1-0.2-1.5-0.3c-0.5-0.2-0.8-0.5-1.2-0.8s-0.7-0.7-0.8-1.2s-0.3-1-0.3-1.5c0-0.5,0.2-1,0.3-1.5 c0.2-0.5,0.5-0.8,0.8-1.2s0.7-0.7,1.2-0.8c0.5-0.2,1-0.3,1.5-0.3c0.5,0,1.2,0.2,1.7,0.3c0.5,0.2,1,0.5,1.3,1l0,0l0.8-0.8l0,0 c-0.5-0.5-1-0.8-1.7-1.2c-0.7-0.3-1.3-0.3-2-0.3c-0.7,0-1.3,0.2-2,0.3c-0.7,0.3-1.2,0.7-1.5,1c-0.5,0.5-0.8,1-1,1.5 c-0.3,0.7-0.3,1.2-0.3,1.9c0,0.7,0.2,1.3,0.3,1.9c0.3,0.7,0.7,1.2,1,1.5c0.5,0.5,1,0.8,1.5,1c0.7,0.3,1.2,0.3,2,0.3 c0.7,0,1.3-0.2,1.9-0.3c0.5-0.2,1-0.5,1.5-1c0.3-0.3,0.7-0.8,1-1.5c0.2-0.5,0.3-1.2,0.3-1.9v-0.2h-4.6v1.2H327.8z"></path> <path class="st0" d="M336.4,99.5v3.4h2.9c0.7,0,1.2-0.2,1.5-0.5c0.3-0.3,0.5-0.7,0.5-1.2s-0.2-1-0.5-1.2c-0.3-0.3-0.8-0.5-1.5-0.5 H336.4z M336.4,107.9L336.4,107.9h-1.2v-9.6h4c1,0,1.7,0.3,2.4,0.8c0.5,0.5,0.8,1.2,0.8,2c0,0.7-0.2,1.2-0.5,1.7 c-0.3,0.5-0.8,0.7-1.3,1l2,4h-1.3l0,0l-2-4h-2.9V107.9L336.4,107.9z"></path> <path class="st0" d="M349.1,99.6l-1.9,4.4h3.5L349.1,99.6z M345.7,107.9L345.7,107.9h-1.2v-0.2l3.9-9.4h1.3l0,0l3.9,9.6h-1.3l0,0 l-1.2-2.9h-4.4L345.7,107.9L345.7,107.9z"></path> <polygon class="st0" points="353.5,99.5 356.8,99.5 356.8,107.9 358,107.9 358,99.5 361.4,99.5 361.4,98.5 353.5,98.5 "></polygon> <polygon class="st0" points="365.1,103.7 368.8,103.7 368.8,102.7 365.1,102.7 365.1,99.5 370.8,99.5 370.8,98.5 363.9,98.5 363.9,107.9 370.8,107.9 370.8,106.9 365.1,106.9 "></polygon> <path class="st0" d="M374.7,99.5v7.4h2c0.5,0,1-0.2,1.5-0.3c0.5-0.2,0.8-0.5,1.2-0.8c0.3-0.3,0.7-0.7,0.8-1.2s0.3-1,0.3-1.5 c0-0.5-0.2-1-0.3-1.5c-0.2-0.5-0.5-0.8-0.8-1.2c-0.3-0.3-0.7-0.5-1.2-0.8c-0.5-0.2-1-0.3-1.5-0.3h-2V99.5z M376.7,107.9h-3.2v-9.6 h3.2c0.7,0,1.3,0.2,2,0.3c0.7,0.2,1.2,0.5,1.7,1c0.5,0.3,0.8,0.8,1,1.5c0.2,0.5,0.3,1.2,0.3,1.9s-0.2,1.3-0.3,1.9 c-0.2,0.5-0.7,1-1,1.5c-0.5,0.3-1,0.7-1.5,1C378.1,107.9,377.4,107.9,376.7,107.9z"></path> <rect x="401.5" y="98.5" class="st0" width="1.2" height="9.6"></rect> <polygon class="st0" points="412.6,105.9 407.1,98.5 407.1,98.5 405.9,98.5 405.9,107.9 407.1,107.9 407.1,100.3 412.8,107.9 412.8,107.9 413.8,107.9 413.8,98.5 412.6,98.5 "></polygon> <polygon class="st0" points="416.4,99.5 419.7,99.5 419.7,107.9 420.9,107.9 420.9,99.5 424.3,99.5 424.3,98.5 416.4,98.5 "></polygon> <polygon class="st0" points="428,103.7 431.7,103.7 431.7,102.7 428,102.7 428,99.5 433.7,99.5 433.7,98.5 426.8,98.5 426.8,107.9 433.7,107.9 433.7,106.9 428,106.9 "></polygon> <path class="st0" d="M437.6,99.5v3.4h2.9c0.7,0,1.2-0.2,1.5-0.5c0.3-0.3,0.5-0.7,0.5-1.2s-0.2-1-0.5-1.2c-0.3-0.3-0.8-0.5-1.5-0.5 H437.6z M437.6,107.9L437.6,107.9h-1.2v-9.6h4c1,0,1.7,0.3,2.4,0.8c0.5,0.5,0.8,1.2,0.8,2c0,0.7-0.2,1.2-0.5,1.7 c-0.3,0.5-0.8,0.7-1.3,1l2,4h-1.3l0,0l-2-4h-2.9V107.9L437.6,107.9z"></path> <path class="st0" d="M450.3,99.6l-1.9,4.4h3.5L450.3,99.6z M446.9,107.9L446.9,107.9h-1.2v-0.2l3.9-9.4h1.3l0,0l3.9,9.6h-1.3l0,0 l-1.2-2.9h-4.4L446.9,107.9L446.9,107.9z"></path> <path class="st0" d="M458.5,100.5c0.3-0.3,0.7-0.7,1.2-0.8c0.5-0.2,1-0.3,1.5-0.3s1.2,0.2,1.7,0.3c0.5,0.2,1,0.5,1.3,1l0,0 l0.8-0.8l0,0c-0.5-0.5-1-0.8-1.7-1.2c-0.7-0.3-1.3-0.3-2-0.3c-0.7,0-1.3,0.2-2,0.3c-0.7,0.2-1.2,0.7-1.5,1c-0.5,0.5-0.8,1-1,1.5 c-0.3,0.7-0.3,1.2-0.3,1.9c0,0.7,0.2,1.3,0.3,1.9c0.3,0.7,0.7,1.2,1,1.5c0.5,0.5,1,0.8,1.5,1c0.7,0.3,1.2,0.3,2,0.3 c0.7,0,1.3-0.2,2-0.3c0.7-0.3,1.2-0.7,1.7-1.2l0,0l-0.8-0.8l0,0c-0.3,0.3-0.8,0.7-1.3,1c-0.5,0.2-1,0.3-1.7,0.3 c-0.5,0-1-0.2-1.5-0.3c-0.5-0.2-0.8-0.5-1.2-0.8c-0.3-0.3-0.7-0.7-0.8-1.2s-0.3-1-0.3-1.5c0-0.5,0.2-1,0.3-1.5 C457.8,101.2,458.2,100.8,458.5,100.5"></path> <polygon class="st0" points="467.1,99.5 470.5,99.5 470.5,107.9 471.7,107.9 471.7,99.5 475,99.5 475,98.5 467.1,98.5 "></polygon> <rect x="477.6" y="98.5" class="st0" width="1.2" height="9.6"></rect> <polygon class="st0" points="485.7,106.7 482.3,98.5 482.3,98.5 480.9,98.5 484.8,107.9 484.8,107.9 486.3,107.9 490.2,98.5 490.2,98.5 489,98.5 "></polygon> <polygon class="st0" points="493.8,106.9 493.8,103.7 497.5,103.7 497.5,102.7 493.8,102.7 493.8,99.5 499.5,99.5 499.5,98.5 492.6,98.5 492.6,107.9 499.5,107.9 499.5,106.9 "></polygon> <path class="st0" d="M174.4,37.1c-1.5,0-2.9,1.2-2.9,2.9v37.3c0,1.5,1.2,2.9,2.9,2.9c1.5,0,2.9-1.2,2.9-2.9V40 C177.2,38.4,175.9,37.1,174.4,37.1"></path> <path class="st0" d="M226.3,37.1c-1.5,0-2.5,1.2-2.5,2.9v30.5l-29.3-32c-0.7-0.8-1.2-1.2-2.2-1.2c-1.5,0-2.5,1.2-2.5,2.9v37.3 c0,1.5,1.2,2.9,2.5,2.9c1.5,0,2.5-1.2,2.5-2.9V46.9l29.3,32c0.7,0.8,1.2,1.2,2.2,1.2c1.5,0,2.5-1.2,2.5-2.9V40 C228.8,38.4,227.7,37.1,226.3,37.1"></path> <path class="st0" d="M265.8,55.5h-15.5c-1.5,0-2.9,1.2-2.9,2.9c0,1.5,1.2,2.9,2.9,2.9h15.5c1.5,0,2.9-1.2,2.9-2.9 C268.6,56.7,267.3,55.5,265.8,55.5"></path> <path class="st0" d="M316.5,37.1c-1,0-1.5,0.3-2.4,1.2l-15.3,16.4l-15.3-16.4c-0.7-0.8-1.3-1.2-2.4-1.2c-1.5,0-2.7,1.2-2.7,2.9 c0,0.7,0.3,1.5,0.8,2l16.9,17.9v17.4c0,1.5,1.2,2.9,2.7,2.9c1.5,0,2.7-1.2,2.7-2.9V59.9L318.4,42c0.5-0.5,0.8-1.3,0.8-2 C319.1,38.4,317.9,37.1,316.5,37.1"></path> <path class="st0" d="M339.5,44.8L339.5,44.8l-7.8,16.7h15.7L339.5,44.8L339.5,44.8z M321.1,80.1c-0.3,0-0.8-0.2-1.2-0.3l0,0 c-1.3-0.7-1.9-2.4-1.3-3.7l17.4-37.1c0.7-1.3,1.9-2,3.5-2c1.5,0,2.9,0.8,3.5,2L360.4,76c0.7,1.5,0.2,3-1.2,3.9 c-0.3,0.2-0.8,0.3-1.2,0.3c-1,0-2-0.7-2.5-1.5l-5.4-11.5h-20.9l-5.4,11.5C323.1,79.4,322.3,80.1,321.1,80.1z"></path> <path class="st0" d="M387.5,42.5c4.2,0,8.4,1.7,11.5,4.7c1,1,3,1,4,0c1.2-1.2,1.2-2.9,0-4c-4-4-9.8-6.4-15.5-6.4 c-12,0-21.8,9.8-21.8,21.7s9.8,21.8,21.8,21.8c5.9,0,11.3-2.2,15.5-6.4c1.2-1.2,1.2-2.9,0-4c-1-1-3-1-4,0c-3,3-7.1,4.7-11.5,4.7 c-8.9,0-16.2-7.2-16.2-16S378.6,42.5,387.5,42.5"></path> <path class="st0" d="M450.3,37.1c-1.5,0-2.9,1.2-2.9,2.9v14.3h-27.8V40c0-1.5-1.2-2.9-2.9-2.9c-1.5,0-2.9,1.2-2.9,2.9v37.3 c0,1.5,1.2,2.9,2.9,2.9c1.5,0,2.9-1.2,2.9-2.9V60h27.8v17.2c0,1.5,1.2,2.9,2.9,2.9c1.5,0,2.9-1.2,2.9-2.9V40 C453.1,38.4,451.9,37.1,450.3,37.1"></path> <path class="st0" d="M497,37.4h-33.6c-1.5,0-2.9,1.2-2.9,2.7c0,1.5,1.2,2.7,2.9,2.7h14v34.2c0,1.5,1.2,2.9,2.9,2.9 c1.5,0,2.9-1.2,2.9-2.9V43h14c1.5,0,2.9-1.2,2.9-2.7C499.8,38.6,498.7,37.4,497,37.4"></path> </g> <g> <linearGradient id="SVGID_1_" gradientUnits="userSpaceOnUse" x1="21.2473" y1="3980.7278" x2="123.733" y2="3878.2419" gradientTransform="matrix(1 0 0 -1 0 4002)"> <stop offset="0" style="stop-color:#87C3C8"></stop> <stop offset="1" style="stop-color:#61A2AD"></stop> </linearGradient> <path class="st1" d="M72.5,0C48.2,0,26.8,12,13.7,30.2l0,0L77.1,70c3.7,1.7,3.2,3.4,0,5.1l-63.4,39.8 C26.8,133.2,48.2,145,72.5,145c40,0,72.5-32.5,72.5-72.5S112.5,0,72.5,0z"></path> <g> <defs> <ellipse id="SVGID_2_" cx="72.5" cy="72.5" rx="72.5" ry="72.5"></ellipse> </defs> <clipPath id="SVGID_3_"> <use xlink:href="#SVGID_2_" style="overflow:visible;"></use> </clipPath> <g class="st2"> <path class="st3" d="M133.6,109.6c1-0.8,2-1.5,2.7-2c1.7-3,3.2-6.2,4.4-9.4c-1,0.5-2,0.8-2.9,1.2c-2.7,1-4.7,2-9.1,5.4 c-3.9,3-6.2,6.9-8.8,10.8c-2.7,4.2-5.6,8.8-10.5,12.5c-3.2,2.4-6.9,4.4-10.5,6.2c-4.7,2.5-9.1,4.7-12.3,7.9 c-0.7,0.7-1.2,1.2-1.7,1.7c12.3-2.2,24.1-7.4,34.2-15.8c2.2-2.5,3.9-5.2,5.6-7.8C127.3,116.3,129.7,112.6,133.6,109.6"></path> <path class="st3" d="M80.4,135.9c3.4-3.4,7.4-5.4,11.6-7.4c4.6-2.2,9.4-4.6,13.7-8.9c0.3-0.3,0.7-0.7,1-1c3.2-3,5.4-6.6,7.4-9.9 c2.5-4,4.9-7.8,8.8-10.8c4.4-3.5,6.4-4.4,9.1-5.4c2.2-0.8,4.7-2,9.3-4.7c0.8-0.5,1.9-1.2,2.7-1.9c0.7-3.4,1-6.6,1.2-9.9 c-0.3,0.3-0.8,0.8-1.3,1.2c-2.4,2.2-4.9,4.2-7.4,5.7c-4.6,2.7-7.1,3.9-9.3,4.7c-2.7,1-4.7,2-9.1,5.4c-3.9,3-6.2,6.9-8.8,10.8 c-2.7,4.2-5.6,8.8-10.5,12.5c-3.2,2.4-6.9,4.4-10.5,6.2c-4.7,2.5-9.1,4.7-12.3,7.9c-4,4-5.1,5.9-6.6,8.4 c-0.8,1.5-1.9,3.2-3.5,5.7c2.5,0.2,5.1,0.3,7.6,0.3c0.2-0.2,0.3-0.5,0.3-0.7C75.4,141.8,76.6,139.9,80.4,135.9"></path> <path class="st3" d="M63.6,132.5c1.3-2.5,2.5-4.4,6.4-8.4c3.4-3.4,7.4-5.4,11.6-7.4c4.6-2.2,9.4-4.6,13.7-8.9 c0.3-0.3,0.7-0.7,1-1c3.2-3,5.4-6.6,7.4-9.9c2.5-4,4.9-7.8,8.8-10.8c4.4-3.5,6.4-4.4,9.1-5.4c2.2-0.8,4.7-2,9.3-4.7 c2.5-1.7,5.1-3.5,7.4-5.9c2.7-2.4,4.7-4.6,5.9-6.4c0.2-0.2,0.3-0.5,0.5-0.7c-0.3-3.2-1-6.4-1.9-9.4c-1.2,1.7-2.4,3.5-3.5,5.4 s-3,4-5.7,6.4c-2.4,2.2-4.9,4.2-7.4,5.7c-4.6,2.7-7.1,3.9-9.3,4.7c-2.7,1-4.7,2-9.1,5.4c-3.9,3-6.2,6.9-8.8,10.8 c-2.7,4.2-5.6,8.8-10.5,12.5c-3.2,2.4-6.9,4.4-10.5,6.2c-4.7,2.5-9.1,4.7-12.1,7.9c-4,4-5.1,5.9-6.6,8.4c-1.2,2-2.5,4.4-5.7,8.6 c-1.3,1.9-3,3.5-4.7,5.1c2.5,0.8,4.9,1.5,7.4,2.2c0.5-0.7,1-1.2,1.5-1.9C61,137.1,62.4,134.7,63.6,132.5"></path> <path class="st3" d="M47.2,129.5c3.4-4.2,4.6-6.6,5.7-8.6c1.3-2.5,2.5-4.4,6.4-8.4c3.4-3.4,7.4-5.4,11.6-7.4 c4.6-2.2,9.4-4.6,13.7-8.9c0.3-0.3,0.7-0.7,1-1c3.2-3,5.4-6.6,7.4-9.9c2.5-4,4.9-7.8,8.8-10.8c4.4-3.5,6.4-4.4,9.1-5.4 c2.2-0.8,4.7-2,9.3-4.7c2.5-1.5,5.1-3.5,7.4-5.9c2.7-2.2,4.7-4.6,5.9-6.4c1.7-3,3.7-5.7,5.6-8.1c-1-2.2-2-4.6-3.4-6.7 c-2.7,2.9-5.1,6.2-7.4,10.1c-1.2,1.9-3,4-5.7,6.4c-2.4,2.2-4.9,4.2-7.4,5.7c-4.6,2.7-7.1,3.9-9.3,4.7c-2.7,1-4.7,2-9.1,5.4 c-3.9,3-6.2,6.9-8.8,10.8c-2.7,4.2-5.6,8.8-10.5,12.5c-3.2,2.4-6.9,4.4-10.5,6.2c-4.7,2.5-9.1,4.7-12.3,7.9 c-4,4-5.1,5.9-6.6,8.4c-1.2,2-2.5,4.4-5.7,8.6c-1.9,2.4-4,4.6-6.6,6.7c-1,1-2,1.9-3,2.7c2,1.3,4.2,2.5,6.4,3.7 c0.3-0.3,0.7-0.5,1-0.8C43.2,134.2,45.4,131.8,47.2,129.5"></path> <path class="st3" d="M126.8,24.1c-3.2,3.2-5.9,6.9-8.6,11.3c-1.2,1.9-3,4-5.7,6.4c-2.4,2.2-4.9,4.2-7.4,5.7 c-4.6,2.7-7.1,3.9-9.3,4.7c-2.7,1-4.7,2-9.1,5.4c-3.9,3-6.2,6.9-8.8,10.8c-0.3,0.3-0.5,0.8-0.8,1.2l1.9,1.2c1,0.7,1,2,0,2.7 l-11.1,7.2c-0.2,0.2-0.3,0.2-0.3,0.3c-2.5,1.9-5.2,3.5-8.1,5.1L45,95.1l-0.2,0.2c-4,4-5.1,5.9-6.6,8.4c-1.2,2-2.5,4.4-5.7,8.6 c-1.9,2.4-4,4.6-6.6,6.7c-1.9,1.7-3.5,3-5.2,4c0.2,0.2,0.3,0.3,0.5,0.7c1.5,1.5,3,2.9,4.6,4.2c1.3-0.8,2.7-2,4.2-3.5 c2.5-2,4.7-4.4,6.7-6.7c3.4-4.2,4.6-6.6,5.7-8.6c1.3-2.5,2.5-4.4,6.4-8.4c3.4-3.4,7.4-5.4,11.6-7.4c4.6-2.2,9.4-4.6,13.7-8.9 c0.3-0.3,0.7-0.7,1-1c3.2-3,5.4-6.6,7.4-9.9c2.5-4,4.9-7.8,8.8-10.8c4.4-3.5,6.4-4.4,9.1-5.4c2.2-0.8,4.7-2,9.3-4.7 c2.5-1.5,5.1-3.5,7.4-5.9c2.7-2.2,4.7-4.6,5.9-6.4c2.4-4,5.1-7.8,7.9-10.8C129.8,27.7,128.3,26,126.8,24.1"></path> <path class="st3" d="M115.2,13.7c-2.7,2.9-5.1,6.2-7.4,10.1c-1.2,1.9-3,4-5.7,6.4c-2.4,2.2-4.9,4.2-7.4,5.7 c-4.6,2.7-7.1,3.9-9.3,4.7c-2.7,1-4.7,2-9.1,5.4c-3.9,3-6.2,6.9-8.8,10.8c-1,1.7-2,3.2-3.2,4.9l5.7,3.5c0.8-1.2,1.7-2.5,2.5-3.7 c2.5-4,4.9-7.8,8.8-10.8c4.4-3.5,6.4-4.4,9.1-5.4c2.2-0.8,4.7-2,9.3-4.7c2.5-1.7,5.1-3.5,7.4-5.9c2.7-2.2,4.7-4.6,5.9-6.4 c2.4-4,4.9-7.6,7.8-10.6C118.9,16.5,117,15,115.2,13.7"></path> <path class="st3" d="M101.3,5.9c-1.3,1.9-2.9,3.9-4,6.2c-1.2,1.9-3,4-5.7,6.4c-2.4,2.2-4.9,4.2-7.4,5.7 c-4.6,2.7-7.1,3.9-9.3,4.7c-2.7,1-4.7,2-9.3,5.4c-3.9,3-6.2,6.9-8.8,10.8c-1.9,2.9-3.5,5.6-6.1,8.3l5.9,3.7 c2-2.4,3.5-4.9,5.1-7.2c2.5-4,4.9-7.8,8.8-10.8c4.4-3.5,6.4-4.4,9.1-5.4c2.2-0.8,4.7-2,9.3-4.7c2.5-1.5,5.1-3.5,7.4-5.9 c2.7-2.4,4.7-4.6,5.9-6.4c1.7-2.9,3.5-5.4,5.4-7.8C105.7,7.9,103.5,6.9,101.3,5.9"></path> <path class="st3" d="M86.3,1.3c-1.2,1.7-2.9,3.5-5.2,5.4c-2.4,2.2-4.9,4.2-7.4,5.7c-4.6,2.7-7.1,3.9-9.3,4.7 c-2.7,1-4.7,2-9.1,5.4c-3.9,3-6.2,6.9-8.8,10.8s-5.1,7.9-9.3,11.5l6.1,3.9c0.2-0.2,0.5-0.5,0.7-0.7c3.2-3,5.4-6.6,7.4-9.9 c2.5-4,4.9-7.8,8.8-10.8c4.4-3.5,6.4-4.4,9.1-5.4c2.2-0.8,4.7-2,9.3-4.7c2.5-1.5,5.1-3.5,7.4-5.9c2.7-2.4,4.7-4.6,5.9-6.4 c0.5-0.7,0.8-1.5,1.3-2.2C90.9,2.2,88.5,1.7,86.3,1.3"></path> <path class="st3" d="M29.5,40.1c1-0.8,2-1.7,3-2.7c0.3-0.3,0.7-0.7,1-1c3.2-3,5.4-6.6,7.4-9.9c2.5-4,4.9-7.8,8.8-10.8 c4.4-3.5,6.4-4.4,9.1-5.4c2.2-0.8,4.7-2,9.3-4.7C70.7,4,73,2.2,75.4,0c-3.9-0.2-7.9,0-11.8,0.5l-0.2,0.2 c-4.6,2.7-7.1,3.9-9.3,4.7c-2.7,1-4.7,2-9.1,5.4c-3.9,3-6.2,6.9-8.8,10.8c-2.7,4.2-5.6,8.8-10.5,12.5c-0.8,0.7-1.7,1.2-2.5,1.9 L29.5,40.1z"></path> <path class="st3" d="M15,31c2.4-1.5,4.7-3.2,6.9-5.4c0.3-0.3,0.7-0.7,1-1c3.2-3,5.4-6.6,7.4-9.9c0.5-0.8,1-1.5,1.5-2.4 c-3.7,2.5-7.4,5.4-10.6,8.8c-2.9,2.9-5.4,5.7-7.6,8.9L15,31z"></path> </g> </g> <path class="st0" d="M62.9,71.7L8.1,39.1C2.9,49.1,0,60.5,0,72.5h63.4C63.4,72.2,63.2,71.9,62.9,71.7z"></path> <path class="st4" d="M8.1,105.9l54.8-32.5c0.3-0.3,0.5-0.5,0.5-0.8H0C0,84.5,3,95.9,8.1,105.9z"></path> </g> </g> </svg> 